<mxfile host="app.diagrams.net" agent="Mozilla/5.0 (Macintosh; Intel Mac OS X 10_15_7) AppleWebKit/537.36 (KHTML, like Gecko) Chrome/136.0.0.0 Safari/537.36" version="27.0.8">
  <diagram name="Page-1" id="qcjHH5lsIiazsaa5W-ul">
    <mxGraphModel dx="1905" dy="1746" grid="1" gridSize="10" guides="1" tooltips="1" connect="1" arrows="1" fold="1" page="1" pageScale="1" pageWidth="850" pageHeight="1100" math="0" shadow="0">
      <root>
        <object label="" id="0">
          <mxCell />
        </object>
        <mxCell id="1" parent="0" />
        <mxCell id="cJNAo7-rpcSI7vIQ_iWm-20" value="" style="rounded=0;whiteSpace=wrap;html=1;" parent="1" vertex="1">
          <mxGeometry x="330" y="-170" width="1160" height="1130" as="geometry" />
        </mxCell>
        <mxCell id="cJNAo7-rpcSI7vIQ_iWm-12" style="edgeStyle=orthogonalEdgeStyle;rounded=0;orthogonalLoop=1;jettySize=auto;html=1;entryX=0;entryY=0.5;entryDx=0;entryDy=0;entryPerimeter=0;" parent="1" source="UwGBYlB62zekXMj5KIBy-1" target="UwGBYlB62zekXMj5KIBy-3" edge="1">
          <mxGeometry relative="1" as="geometry">
            <mxPoint x="220" y="324.5" as="targetPoint" />
          </mxGeometry>
        </mxCell>
        <mxCell id="UwGBYlB62zekXMj5KIBy-1" value="" style="image;sketch=0;aspect=fixed;html=1;points=[];align=center;fontSize=12;image=img/lib/mscae/App_Service_Mobile_App.svg;" parent="1" vertex="1">
          <mxGeometry x="-10" y="269" width="75.48" height="111" as="geometry" />
        </mxCell>
        <mxCell id="UAeihqjAnbuL0MjybBQk-22" style="edgeStyle=orthogonalEdgeStyle;rounded=0;orthogonalLoop=1;jettySize=auto;html=1;" parent="1" source="UwGBYlB62zekXMj5KIBy-3" target="cJNAo7-rpcSI7vIQ_iWm-20" edge="1">
          <mxGeometry relative="1" as="geometry">
            <Array as="points">
              <mxPoint x="630" y="-130" />
              <mxPoint x="630" y="-130" />
            </Array>
          </mxGeometry>
        </mxCell>
        <mxCell id="UwGBYlB62zekXMj5KIBy-3" value="" style="sketch=0;points=[[0,0,0],[0.25,0,0],[0.5,0,0],[0.75,0,0],[1,0,0],[0,1,0],[0.25,1,0],[0.5,1,0],[0.75,1,0],[1,1,0],[0,0.25,0],[0,0.5,0],[0,0.75,0],[1,0.25,0],[1,0.5,0],[1,0.75,0]];outlineConnect=0;fontColor=#232F3E;fillColor=#E7157B;strokeColor=#ffffff;dashed=0;verticalLabelPosition=bottom;verticalAlign=top;align=center;html=1;fontSize=12;fontStyle=0;aspect=fixed;shape=mxgraph.aws4.resourceIcon;resIcon=mxgraph.aws4.api_gateway;" parent="1" vertex="1">
          <mxGeometry x="366" y="263.4" width="117.6" height="117.6" as="geometry" />
        </mxCell>
        <mxCell id="feQHXw3CqpQp4v3quzRs-2" value="Client" style="shape=umlActor;verticalLabelPosition=bottom;verticalAlign=top;html=1;outlineConnect=0;" parent="1" vertex="1">
          <mxGeometry x="-290" y="243.9" width="70" height="135" as="geometry" />
        </mxCell>
        <mxCell id="cJNAo7-rpcSI7vIQ_iWm-6" value="" style="endArrow=classic;html=1;rounded=0;" parent="1" edge="1">
          <mxGeometry width="50" height="50" relative="1" as="geometry">
            <mxPoint x="-210" y="330" as="sourcePoint" />
            <mxPoint x="-20" y="330" as="targetPoint" />
          </mxGeometry>
        </mxCell>
        <mxCell id="cJNAo7-rpcSI7vIQ_iWm-8" value="Flutter Mobile Applications" style="swimlane;whiteSpace=wrap;html=1;startSize=23;align=left;" parent="1" vertex="1">
          <mxGeometry x="-72.25999999999999" y="440" width="200" height="326" as="geometry" />
        </mxCell>
        <mxCell id="cJNAo7-rpcSI7vIQ_iWm-11" value="&lt;h3&gt;UI Components&lt;/h3&gt;&lt;h3&gt;1.&amp;nbsp;&lt;span style=&quot;background-color: transparent; color: light-dark(rgb(0, 0, 0), rgb(255, 255, 255)); font-size: 12px; font-weight: normal;&quot;&gt;Login/Signup Screen&lt;/span&gt;&lt;/h3&gt;&lt;h3&gt;&lt;span style=&quot;background-color: transparent; color: light-dark(rgb(0, 0, 0), rgb(255, 255, 255)); font-size: 12px; font-weight: normal;&quot;&gt;2.&lt;/span&gt;&lt;span style=&quot;background-color: transparent; color: light-dark(rgb(0, 0, 0), rgb(255, 255, 255)); font-size: 12px; font-weight: normal;&quot;&gt;Home/Search Screen&lt;/span&gt;&lt;/h3&gt;&lt;div&gt;3.&lt;span style=&quot;background-color: transparent; color: light-dark(rgb(0, 0, 0), rgb(255, 255, 255));&quot;&gt;Class Details Screen&lt;/span&gt;&lt;/div&gt;&lt;div&gt;&lt;span style=&quot;background-color: transparent; color: light-dark(rgb(0, 0, 0), rgb(255, 255, 255));&quot;&gt;&lt;br&gt;&lt;/span&gt;&lt;/div&gt;&lt;div&gt;&lt;span style=&quot;background-color: transparent; color: light-dark(rgb(0, 0, 0), rgb(255, 255, 255));&quot;&gt;4.&lt;/span&gt;&lt;span style=&quot;background-color: transparent; color: light-dark(rgb(0, 0, 0), rgb(255, 255, 255));&quot;&gt;Profile Screen&lt;/span&gt;&lt;/div&gt;&lt;div&gt;&lt;span style=&quot;background-color: transparent; color: light-dark(rgb(0, 0, 0), rgb(255, 255, 255));&quot;&gt;&lt;br&gt;&lt;/span&gt;&lt;/div&gt;&lt;div&gt;&lt;div&gt;5.Notifications Screen&lt;/div&gt;&lt;/div&gt;&lt;div&gt;&lt;br&gt;&lt;/div&gt;&lt;div&gt;&lt;h3&gt;State Management (Redux/Context)&lt;/h3&gt;&lt;/div&gt;&lt;div&gt;&lt;h3&gt;API Client (Axios)&lt;/h3&gt;&lt;/div&gt;" style="text;html=1;align=left;verticalAlign=middle;whiteSpace=wrap;rounded=0;" parent="cJNAo7-rpcSI7vIQ_iWm-8" vertex="1">
          <mxGeometry x="2.04" y="20.4" width="195.92" height="305.6" as="geometry" />
        </mxCell>
        <mxCell id="cJNAo7-rpcSI7vIQ_iWm-13" value="&lt;h3&gt;REST API (HTTP)&lt;/h3&gt;" style="rounded=1;whiteSpace=wrap;html=1;" parent="1" vertex="1">
          <mxGeometry x="160" y="294.5" width="120" height="60" as="geometry" />
        </mxCell>
        <mxCell id="cJNAo7-rpcSI7vIQ_iWm-14" value="&lt;h2&gt;API GATEWAY&lt;/h2&gt;" style="swimlane;whiteSpace=wrap;html=1;startSize=23;align=left;" parent="1" vertex="1">
          <mxGeometry x="320" y="450" width="200" height="210" as="geometry" />
        </mxCell>
        <mxCell id="cJNAo7-rpcSI7vIQ_iWm-15" value="&lt;h3&gt;&amp;nbsp;ENDPOINTS&lt;/h3&gt;&lt;h3&gt;1.&amp;nbsp;&lt;span style=&quot;background-color: transparent; color: light-dark(rgb(0, 0, 0), rgb(255, 255, 255)); font-size: 12px; font-weight: normal;&quot; class=&quot;text-sm px-1 rounded-sm !font-mono bg-sunset/10 text-rust dark:bg-dawn/10 dark:text-dawn&quot;&gt;/auth/*&lt;/span&gt;&lt;span style=&quot;background-color: transparent; color: light-dark(rgb(0, 0, 0), rgb(255, 255, 255)); font-size: 12px; font-weight: normal;&quot;&gt; (signup, login, verify)&lt;/span&gt;&lt;/h3&gt;&lt;h3&gt;&lt;span style=&quot;background-color: transparent; color: light-dark(rgb(0, 0, 0), rgb(255, 255, 255)); font-size: 12px; font-weight: normal;&quot;&gt;2.&lt;/span&gt;&lt;span style=&quot;background-color: transparent; color: light-dark(rgb(0, 0, 0), rgb(255, 255, 255)); font-size: 12px; font-weight: normal;&quot; class=&quot;text-sm px-1 rounded-sm !font-mono bg-sunset/10 text-rust dark:bg-dawn/10 dark:text-dawn&quot;&gt;/classes/*&lt;/span&gt;&lt;span style=&quot;background-color: transparent; color: light-dark(rgb(0, 0, 0), rgb(255, 255, 255)); font-size: 12px; font-weight: normal;&quot;&gt; (search, details)&lt;/span&gt;&lt;/h3&gt;&lt;div&gt;3.&lt;span style=&quot;background-color: transparent; color: light-dark(rgb(0, 0, 0), rgb(255, 255, 255));&quot; class=&quot;text-sm px-1 rounded-sm !font-mono bg-sunset/10 text-rust dark:bg-dawn/10 dark:text-dawn&quot;&gt;/bookings/*&lt;/span&gt;&lt;span style=&quot;background-color: transparent; color: light-dark(rgb(0, 0, 0), rgb(255, 255, 255));&quot;&gt; (create, history)&lt;/span&gt;&lt;/div&gt;&lt;div&gt;&lt;span style=&quot;background-color: transparent; color: light-dark(rgb(0, 0, 0), rgb(255, 255, 255));&quot;&gt;&lt;br&gt;&lt;/span&gt;&lt;/div&gt;&lt;div&gt;&lt;span style=&quot;background-color: transparent; color: light-dark(rgb(0, 0, 0), rgb(255, 255, 255));&quot;&gt;4.&lt;/span&gt;&lt;span style=&quot;background-color: transparent; color: light-dark(rgb(0, 0, 0), rgb(255, 255, 255));&quot; class=&quot;text-sm px-1 rounded-sm !font-mono bg-sunset/10 text-rust dark:bg-dawn/10 dark:text-dawn&quot;&gt;/payments/*&lt;/span&gt;&lt;span style=&quot;background-color: transparent; color: light-dark(rgb(0, 0, 0), rgb(255, 255, 255));&quot;&gt; (process payments&lt;/span&gt;&lt;/div&gt;&lt;div&gt;&lt;span style=&quot;background-color: transparent; color: light-dark(rgb(0, 0, 0), rgb(255, 255, 255));&quot;&gt;&lt;br&gt;&lt;/span&gt;&lt;/div&gt;&lt;div&gt;&lt;div&gt;5.&lt;span style=&quot;background-color: transparent; color: light-dark(rgb(0, 0, 0), rgb(255, 255, 255));&quot; class=&quot;text-sm px-1 rounded-sm !font-mono bg-sunset/10 text-rust dark:bg-dawn/10 dark:text-dawn&quot;&gt;/ratings/*&lt;/span&gt;&lt;span style=&quot;background-color: transparent; color: light-dark(rgb(0, 0, 0), rgb(255, 255, 255));&quot;&gt; (submit, view)&lt;/span&gt;&lt;/div&gt;&lt;/div&gt;&lt;div&gt;&lt;br&gt;&lt;/div&gt;&lt;div&gt;&lt;h3&gt;&lt;br&gt;&lt;/h3&gt;&lt;/div&gt;" style="text;html=1;align=left;verticalAlign=middle;whiteSpace=wrap;rounded=0;" parent="cJNAo7-rpcSI7vIQ_iWm-14" vertex="1">
          <mxGeometry y="20.4" width="195.92" height="219.6" as="geometry" />
        </mxCell>
        <mxCell id="cJNAo7-rpcSI7vIQ_iWm-17" value="" style="endArrow=none;html=1;rounded=0;exitX=0.5;exitY=0;exitDx=0;exitDy=0;" parent="1" source="cJNAo7-rpcSI7vIQ_iWm-8" edge="1">
          <mxGeometry width="50" height="50" relative="1" as="geometry">
            <mxPoint x="30" y="428" as="sourcePoint" />
            <mxPoint x="30" y="377.5" as="targetPoint" />
          </mxGeometry>
        </mxCell>
        <mxCell id="UAeihqjAnbuL0MjybBQk-8" value="Search Service" style="swimlane;fontStyle=0;childLayout=stackLayout;horizontal=1;startSize=30;horizontalStack=0;resizeParent=1;resizeParentMax=0;resizeLast=0;collapsible=1;marginBottom=0;whiteSpace=wrap;html=1;" parent="1" vertex="1">
          <mxGeometry x="730" width="360" height="180" as="geometry" />
        </mxCell>
        <mxCell id="UAeihqjAnbuL0MjybBQk-9" value="&lt;div&gt;&lt;span style=&quot;color: rgb(64, 120, 242);&quot; class=&quot;hljs-function&quot;&gt;SearchClasses&lt;/span&gt;&lt;span class=&quot;hljs-function hljs-params&quot;&gt;(interest, location &lt;/span&gt;&lt;span style=&quot;color: rgb(166, 38, 164);&quot; class=&quot;hljs-function hljs-params&quot;&gt;string&lt;/span&gt;&lt;span class=&quot;hljs-function hljs-params&quot;&gt;, lat, lon &lt;/span&gt;&lt;span style=&quot;color: rgb(166, 38, 164);&quot; class=&quot;hljs-function hljs-params&quot;&gt;float64&lt;/span&gt;&lt;span class=&quot;hljs-function hljs-params&quot;&gt;, radius &lt;/span&gt;&lt;span style=&quot;color: rgb(166, 38, 164);&quot; class=&quot;hljs-function hljs-params&quot;&gt;int&lt;/span&gt;&lt;span class=&quot;hljs-function hljs-params&quot;&gt;)&lt;/span&gt;&lt;span class=&quot;hljs-function&quot;&gt; &lt;/span&gt;&lt;span class=&quot;hljs-function hljs-params&quot;&gt;([]Class, error)&lt;/span&gt;&lt;/div&gt;" style="text;strokeColor=none;fillColor=none;align=left;verticalAlign=middle;spacingLeft=4;spacingRight=4;overflow=hidden;points=[[0,0.5],[1,0.5]];portConstraint=eastwest;rotatable=0;whiteSpace=wrap;html=1;" parent="UAeihqjAnbuL0MjybBQk-8" vertex="1">
          <mxGeometry y="30" width="360" height="30" as="geometry" />
        </mxCell>
        <mxCell id="UAeihqjAnbuL0MjybBQk-19" value="&lt;div&gt;&lt;span style=&quot;color: rgb(64, 120, 242);&quot; class=&quot;hljs-function&quot;&gt;GetClassDetails&lt;/span&gt;&lt;span class=&quot;hljs-function hljs-params&quot;&gt;(classID &lt;/span&gt;&lt;span style=&quot;color: rgb(166, 38, 164);&quot; class=&quot;hljs-function hljs-params&quot;&gt;string&lt;/span&gt;&lt;span class=&quot;hljs-function hljs-params&quot;&gt;)&lt;/span&gt;&lt;span class=&quot;hljs-function&quot;&gt; &lt;/span&gt;&lt;span class=&quot;hljs-function hljs-params&quot;&gt;(Class, error)&lt;/span&gt;&lt;/div&gt;" style="text;strokeColor=none;fillColor=none;align=left;verticalAlign=middle;spacingLeft=4;spacingRight=4;overflow=hidden;points=[[0,0.5],[1,0.5]];portConstraint=eastwest;rotatable=0;whiteSpace=wrap;html=1;" parent="UAeihqjAnbuL0MjybBQk-8" vertex="1">
          <mxGeometry y="60" width="360" height="30" as="geometry" />
        </mxCell>
        <mxCell id="UAeihqjAnbuL0MjybBQk-20" value="&lt;div&gt;&lt;span style=&quot;color: rgb(64, 120, 242);&quot; class=&quot;hljs-function&quot;&gt;AddClass&lt;/span&gt;&lt;span class=&quot;hljs-function hljs-params&quot;&gt;(class Class)&lt;/span&gt;&lt;span class=&quot;hljs-function&quot;&gt; &lt;/span&gt;&lt;span style=&quot;color: rgb(64, 120, 242);&quot; class=&quot;hljs-function&quot;&gt;error&lt;/span&gt;&lt;/div&gt;" style="text;strokeColor=none;fillColor=none;align=left;verticalAlign=middle;spacingLeft=4;spacingRight=4;overflow=hidden;points=[[0,0.5],[1,0.5]];portConstraint=eastwest;rotatable=0;whiteSpace=wrap;html=1;" parent="UAeihqjAnbuL0MjybBQk-8" vertex="1">
          <mxGeometry y="90" width="360" height="30" as="geometry" />
        </mxCell>
        <mxCell id="oVWomtoi58OLULpYhx_r-2" value="&lt;div&gt;&lt;span class=&quot;hljs-function hljs-params&quot;&gt;&lt;font color=&quot;#5b8bf4&quot;&gt;SearchOrganizations&lt;/font&gt;(class Class)&lt;/span&gt;&lt;span class=&quot;hljs-function&quot;&gt; &lt;/span&gt;&lt;span style=&quot;color: rgb(64, 120, 242);&quot; class=&quot;hljs-function&quot;&gt;error&lt;/span&gt;&lt;/div&gt;" style="text;strokeColor=none;fillColor=none;align=left;verticalAlign=middle;spacingLeft=4;spacingRight=4;overflow=hidden;points=[[0,0.5],[1,0.5]];portConstraint=eastwest;rotatable=0;whiteSpace=wrap;html=1;" vertex="1" parent="UAeihqjAnbuL0MjybBQk-8">
          <mxGeometry y="120" width="360" height="30" as="geometry" />
        </mxCell>
        <mxCell id="oVWomtoi58OLULpYhx_r-3" value="&lt;div&gt;&lt;span class=&quot;hljs-function hljs-params&quot;&gt;&lt;font color=&quot;#5b8bf4&quot;&gt;SearchFeedbacks&lt;/font&gt;(class Class)&lt;/span&gt;&lt;span class=&quot;hljs-function&quot;&gt; &lt;/span&gt;&lt;span style=&quot;color: rgb(64, 120, 242);&quot; class=&quot;hljs-function&quot;&gt;error&lt;/span&gt;&lt;/div&gt;" style="text;strokeColor=none;fillColor=none;align=left;verticalAlign=middle;spacingLeft=4;spacingRight=4;overflow=hidden;points=[[0,0.5],[1,0.5]];portConstraint=eastwest;rotatable=0;whiteSpace=wrap;html=1;" vertex="1" parent="UAeihqjAnbuL0MjybBQk-8">
          <mxGeometry y="150" width="360" height="30" as="geometry" />
        </mxCell>
        <mxCell id="UAeihqjAnbuL0MjybBQk-10" value="Booking Service" style="swimlane;fontStyle=0;childLayout=stackLayout;horizontal=1;startSize=30;horizontalStack=0;resizeParent=1;resizeParentMax=0;resizeLast=0;collapsible=1;marginBottom=0;whiteSpace=wrap;html=1;" parent="1" vertex="1">
          <mxGeometry x="730" y="234.5" width="360" height="150" as="geometry" />
        </mxCell>
        <mxCell id="UAeihqjAnbuL0MjybBQk-29" value="&lt;font color=&quot;#5b8bf4&quot;&gt;CancelBooking(userId, classId) error&lt;/font&gt;" style="text;strokeColor=none;fillColor=none;align=left;verticalAlign=middle;spacingLeft=4;spacingRight=4;overflow=hidden;points=[[0,0.5],[1,0.5]];portConstraint=eastwest;rotatable=0;whiteSpace=wrap;html=1;" parent="UAeihqjAnbuL0MjybBQk-10" vertex="1">
          <mxGeometry y="30" width="360" height="30" as="geometry" />
        </mxCell>
        <mxCell id="UAeihqjAnbuL0MjybBQk-11" value="&lt;div&gt;&lt;span class=&quot;hljs-function&quot;&gt; &lt;/span&gt;&lt;span style=&quot;color: rgb(64, 120, 242);&quot; class=&quot;hljs-function&quot;&gt;CreateBooking&lt;/span&gt;&lt;span class=&quot;hljs-function hljs-params&quot;&gt;(userID, classID &lt;/span&gt;&lt;span style=&quot;color: rgb(166, 38, 164);&quot; class=&quot;hljs-function hljs-params&quot;&gt;string&lt;/span&gt;&lt;span class=&quot;hljs-function hljs-params&quot;&gt;) booking, error&lt;/span&gt;&lt;/div&gt;" style="text;strokeColor=none;fillColor=none;align=left;verticalAlign=middle;spacingLeft=4;spacingRight=4;overflow=hidden;points=[[0,0.5],[1,0.5]];portConstraint=eastwest;rotatable=0;whiteSpace=wrap;html=1;" parent="UAeihqjAnbuL0MjybBQk-10" vertex="1">
          <mxGeometry y="60" width="360" height="30" as="geometry" />
        </mxCell>
        <mxCell id="JZDSqkAnThd7MCSSOPGy-10" value="&lt;div&gt;&lt;span style=&quot;color: rgb(64, 120, 242);&quot; class=&quot;hljs-function&quot;&gt;GetUserBookings&lt;/span&gt;&lt;span class=&quot;hljs-function hljs-params&quot;&gt;(userID &lt;/span&gt;&lt;span style=&quot;color: rgb(166, 38, 164);&quot; class=&quot;hljs-function hljs-params&quot;&gt;string&lt;/span&gt;&lt;span class=&quot;hljs-function hljs-params&quot;&gt;)&lt;/span&gt;&lt;span class=&quot;hljs-function&quot;&gt; &lt;/span&gt;&lt;span class=&quot;hljs-function hljs-params&quot;&gt;([]Booking, error)&lt;/span&gt;&lt;/div&gt;" style="text;strokeColor=none;fillColor=none;align=left;verticalAlign=middle;spacingLeft=4;spacingRight=4;overflow=hidden;points=[[0,0.5],[1,0.5]];portConstraint=eastwest;rotatable=0;whiteSpace=wrap;html=1;" parent="UAeihqjAnbuL0MjybBQk-10" vertex="1">
          <mxGeometry y="90" width="360" height="30" as="geometry" />
        </mxCell>
        <mxCell id="UAeihqjAnbuL0MjybBQk-30" value="&lt;div&gt;&lt;span style=&quot;color: rgb(64, 120, 242);&quot; class=&quot;hljs-function&quot;&gt;Notify&lt;/span&gt;&lt;span class=&quot;hljs-function hljs-params&quot;&gt;(bookingID &lt;/span&gt;&lt;span style=&quot;color: rgb(166, 38, 164);&quot; class=&quot;hljs-function hljs-params&quot;&gt;string&lt;/span&gt;&lt;span class=&quot;hljs-function hljs-params&quot;&gt;)&lt;/span&gt;&lt;span class=&quot;hljs-function&quot;&gt; &lt;/span&gt;&lt;span style=&quot;color: rgb(64, 120, 242);&quot; class=&quot;hljs-function&quot;&gt;error&lt;/span&gt;&lt;/div&gt;" style="text;strokeColor=none;fillColor=none;align=left;verticalAlign=middle;spacingLeft=4;spacingRight=4;overflow=hidden;points=[[0,0.5],[1,0.5]];portConstraint=eastwest;rotatable=0;whiteSpace=wrap;html=1;" parent="UAeihqjAnbuL0MjybBQk-10" vertex="1">
          <mxGeometry y="120" width="360" height="30" as="geometry" />
        </mxCell>
        <mxCell id="UAeihqjAnbuL0MjybBQk-14" value="Repository Service" style="swimlane;fontStyle=0;childLayout=stackLayout;horizontal=1;startSize=30;horizontalStack=0;resizeParent=1;resizeParentMax=0;resizeLast=0;collapsible=1;marginBottom=0;whiteSpace=wrap;html=1;" parent="1" vertex="1">
          <mxGeometry x="730" y="420" width="360" height="90" as="geometry" />
        </mxCell>
        <mxCell id="UAeihqjAnbuL0MjybBQk-15" value="&lt;div&gt;&lt;span style=&quot;color: rgb(64, 120, 242);&quot; class=&quot;hljs-function&quot;&gt;SubmitRating&lt;/span&gt;&lt;span class=&quot;hljs-function hljs-params&quot;&gt;(userID, classID &lt;/span&gt;&lt;span style=&quot;color: rgb(166, 38, 164);&quot; class=&quot;hljs-function hljs-params&quot;&gt;string&lt;/span&gt;&lt;span class=&quot;hljs-function hljs-params&quot;&gt;, rating &lt;/span&gt;&lt;span style=&quot;color: rgb(166, 38, 164);&quot; class=&quot;hljs-function hljs-params&quot;&gt;int&lt;/span&gt;&lt;span class=&quot;hljs-function hljs-params&quot;&gt;, comment &lt;/span&gt;&lt;span style=&quot;color: rgb(166, 38, 164);&quot; class=&quot;hljs-function hljs-params&quot;&gt;string&lt;/span&gt;&lt;span class=&quot;hljs-function hljs-params&quot;&gt;)&lt;/span&gt;&lt;span class=&quot;hljs-function&quot;&gt; &lt;/span&gt;&lt;span style=&quot;color: rgb(64, 120, 242);&quot; class=&quot;hljs-function&quot;&gt;error&lt;/span&gt;&lt;/div&gt;" style="text;strokeColor=none;fillColor=none;align=left;verticalAlign=middle;spacingLeft=4;spacingRight=4;overflow=hidden;points=[[0,0.5],[1,0.5]];portConstraint=eastwest;rotatable=0;whiteSpace=wrap;html=1;" parent="UAeihqjAnbuL0MjybBQk-14" vertex="1">
          <mxGeometry y="30" width="360" height="30" as="geometry" />
        </mxCell>
        <mxCell id="UAeihqjAnbuL0MjybBQk-32" value="&lt;div&gt;&lt;span style=&quot;color: rgb(64, 120, 242);&quot; class=&quot;hljs-function&quot;&gt;GetClassRatings&lt;/span&gt;&lt;span class=&quot;hljs-function hljs-params&quot;&gt;(classID &lt;/span&gt;&lt;span style=&quot;color: rgb(166, 38, 164);&quot; class=&quot;hljs-function hljs-params&quot;&gt;string&lt;/span&gt;&lt;span class=&quot;hljs-function hljs-params&quot;&gt;)&lt;/span&gt;&lt;span class=&quot;hljs-function&quot;&gt; &lt;/span&gt;&lt;span class=&quot;hljs-function hljs-params&quot;&gt;(&lt;/span&gt;&lt;span style=&quot;color: rgb(166, 38, 164);&quot; class=&quot;hljs-function hljs-params&quot;&gt;float64&lt;/span&gt;&lt;span class=&quot;hljs-function hljs-params&quot;&gt;, []Rating, error)&lt;/span&gt;&lt;/div&gt;" style="text;strokeColor=none;fillColor=none;align=left;verticalAlign=middle;spacingLeft=4;spacingRight=4;overflow=hidden;points=[[0,0.5],[1,0.5]];portConstraint=eastwest;rotatable=0;whiteSpace=wrap;html=1;" parent="UAeihqjAnbuL0MjybBQk-14" vertex="1">
          <mxGeometry y="60" width="360" height="30" as="geometry" />
        </mxCell>
        <mxCell id="UAeihqjAnbuL0MjybBQk-33" value="Notification Service" style="swimlane;fontStyle=0;childLayout=stackLayout;horizontal=1;startSize=30;horizontalStack=0;resizeParent=1;resizeParentMax=0;resizeLast=0;collapsible=1;marginBottom=0;whiteSpace=wrap;html=1;" parent="1" vertex="1">
          <mxGeometry x="740" y="570" width="360" height="120" as="geometry" />
        </mxCell>
        <mxCell id="UAeihqjAnbuL0MjybBQk-34" value="&lt;div&gt;&lt;span style=&quot;color: rgb(64, 120, 242);&quot; class=&quot;hljs-function&quot;&gt;SendVerificationEmail&lt;/span&gt;&lt;span class=&quot;hljs-function hljs-params&quot;&gt;(email, token &lt;/span&gt;&lt;span style=&quot;color: rgb(166, 38, 164);&quot; class=&quot;hljs-function hljs-params&quot;&gt;string&lt;/span&gt;&lt;span class=&quot;hljs-function hljs-params&quot;&gt;)&lt;/span&gt;&lt;span class=&quot;hljs-function&quot;&gt; &lt;/span&gt;&lt;span style=&quot;color: rgb(64, 120, 242);&quot; class=&quot;hljs-function&quot;&gt;error&lt;/span&gt;&lt;/div&gt;" style="text;strokeColor=none;fillColor=none;align=left;verticalAlign=middle;spacingLeft=4;spacingRight=4;overflow=hidden;points=[[0,0.5],[1,0.5]];portConstraint=eastwest;rotatable=0;whiteSpace=wrap;html=1;" parent="UAeihqjAnbuL0MjybBQk-33" vertex="1">
          <mxGeometry y="30" width="360" height="30" as="geometry" />
        </mxCell>
        <mxCell id="UAeihqjAnbuL0MjybBQk-35" value="&lt;div&gt;&lt;span style=&quot;color: rgb(64, 120, 242);&quot; class=&quot;hljs-function&quot;&gt;SendBookingConfirmation&lt;/span&gt;&lt;span class=&quot;hljs-function hljs-params&quot;&gt;(email, bookingID, classTitle &lt;/span&gt;&lt;span style=&quot;color: rgb(166, 38, 164);&quot; class=&quot;hljs-function hljs-params&quot;&gt;string&lt;/span&gt;&lt;span class=&quot;hljs-function hljs-params&quot;&gt;)&lt;/span&gt;&lt;span class=&quot;hljs-function&quot;&gt; &lt;/span&gt;&lt;span style=&quot;color: rgb(64, 120, 242);&quot; class=&quot;hljs-function&quot;&gt;error&lt;/span&gt;&lt;/div&gt;" style="text;strokeColor=none;fillColor=none;align=left;verticalAlign=middle;spacingLeft=4;spacingRight=4;overflow=hidden;points=[[0,0.5],[1,0.5]];portConstraint=eastwest;rotatable=0;whiteSpace=wrap;html=1;" parent="UAeihqjAnbuL0MjybBQk-33" vertex="1">
          <mxGeometry y="60" width="360" height="30" as="geometry" />
        </mxCell>
        <mxCell id="UAeihqjAnbuL0MjybBQk-36" value="&lt;div&gt;&lt;span style=&quot;color: rgb(64, 120, 242);&quot; class=&quot;hljs-function&quot;&gt;SendReminder&lt;/span&gt;&lt;span class=&quot;hljs-function hljs-params&quot;&gt;(email, classTitle &lt;/span&gt;&lt;span style=&quot;color: rgb(166, 38, 164);&quot; class=&quot;hljs-function hljs-params&quot;&gt;string&lt;/span&gt;&lt;span class=&quot;hljs-function hljs-params&quot;&gt;, schedule time.Time)&lt;/span&gt;&lt;span class=&quot;hljs-function&quot;&gt; &lt;/span&gt;&lt;span style=&quot;color: rgb(64, 120, 242);&quot; class=&quot;hljs-function&quot;&gt;error&lt;/span&gt;&lt;/div&gt;" style="text;strokeColor=none;fillColor=none;align=left;verticalAlign=middle;spacingLeft=4;spacingRight=4;overflow=hidden;points=[[0,0.5],[1,0.5]];portConstraint=eastwest;rotatable=0;whiteSpace=wrap;html=1;" parent="UAeihqjAnbuL0MjybBQk-33" vertex="1">
          <mxGeometry y="90" width="360" height="30" as="geometry" />
        </mxCell>
        <mxCell id="UAeihqjAnbuL0MjybBQk-40" value="" style="endArrow=none;html=1;rounded=0;entryX=0;entryY=0.5;entryDx=0;entryDy=0;" parent="1" source="UwGBYlB62zekXMj5KIBy-3" target="UAeihqjAnbuL0MjybBQk-19" edge="1">
          <mxGeometry width="50" height="50" relative="1" as="geometry">
            <mxPoint x="480" y="320" as="sourcePoint" />
            <mxPoint x="530" y="270" as="targetPoint" />
          </mxGeometry>
        </mxCell>
        <mxCell id="UAeihqjAnbuL0MjybBQk-41" value="" style="endArrow=none;html=1;rounded=0;entryX=0;entryY=0.5;entryDx=0;entryDy=0;" parent="1" source="UwGBYlB62zekXMj5KIBy-3" target="UAeihqjAnbuL0MjybBQk-29" edge="1">
          <mxGeometry width="50" height="50" relative="1" as="geometry">
            <mxPoint x="494" y="297" as="sourcePoint" />
            <mxPoint x="740" y="148" as="targetPoint" />
          </mxGeometry>
        </mxCell>
        <mxCell id="UAeihqjAnbuL0MjybBQk-43" value="" style="endArrow=none;html=1;rounded=0;entryX=-0.001;entryY=0.162;entryDx=0;entryDy=0;exitX=1;exitY=1;exitDx=0;exitDy=0;exitPerimeter=0;entryPerimeter=0;" parent="1" source="UwGBYlB62zekXMj5KIBy-3" target="UAeihqjAnbuL0MjybBQk-14" edge="1">
          <mxGeometry width="50" height="50" relative="1" as="geometry">
            <mxPoint x="494" y="362" as="sourcePoint" />
            <mxPoint x="740" y="443" as="targetPoint" />
          </mxGeometry>
        </mxCell>
        <mxCell id="UAeihqjAnbuL0MjybBQk-45" value="" style="endArrow=none;html=1;rounded=0;entryX=-0.001;entryY=0.148;entryDx=0;entryDy=0;exitX=0.75;exitY=1;exitDx=0;exitDy=0;exitPerimeter=0;entryPerimeter=0;" parent="1" source="UwGBYlB62zekXMj5KIBy-3" target="UAeihqjAnbuL0MjybBQk-33" edge="1">
          <mxGeometry width="50" height="50" relative="1" as="geometry">
            <mxPoint x="494" y="391" as="sourcePoint" />
            <mxPoint x="740" y="595" as="targetPoint" />
          </mxGeometry>
        </mxCell>
        <mxCell id="oVWomtoi58OLULpYhx_r-4" value="" style="outlineConnect=0;dashed=0;verticalLabelPosition=bottom;verticalAlign=top;align=center;html=1;shape=mxgraph.aws3.elasticsearch_service;fillColor=#F58534;gradientColor=none;" vertex="1" parent="1">
          <mxGeometry x="1300" y="30" width="67.5" height="81" as="geometry" />
        </mxCell>
        <mxCell id="oVWomtoi58OLULpYhx_r-8" style="edgeStyle=orthogonalEdgeStyle;rounded=0;orthogonalLoop=1;jettySize=auto;html=1;exitX=1;exitY=0.5;exitDx=0;exitDy=0;" edge="1" parent="1" source="UAeihqjAnbuL0MjybBQk-19" target="oVWomtoi58OLULpYhx_r-4">
          <mxGeometry relative="1" as="geometry">
            <Array as="points">
              <mxPoint x="1110" y="75" />
              <mxPoint x="1110" y="75" />
            </Array>
          </mxGeometry>
        </mxCell>
        <mxCell id="oVWomtoi58OLULpYhx_r-9" value="Elastic Search Engine" style="rounded=0;whiteSpace=wrap;html=1;" vertex="1" parent="1">
          <mxGeometry x="1273.75" y="120" width="120" height="60" as="geometry" />
        </mxCell>
      </root>
    </mxGraphModel>
  </diagram>
</mxfile>
